<svg height="2350" width="720" xmlns="http://www.w3.org/2000/svg">
<rect height="2350" fill="#555" width="720"></rect>
<text fill="#7f7" font-family="Courier New" font-size="12" xml:space="preserve">
<tspan x="10" y="26"></tspan>
<tspan x="10" y="42">&gt; npmdoc-grunt-contrib-clean@0.0.2 test /home/travis/build/npmdoc/node-npmdoc-grunt-contrib-clea\</tspan>
<tspan x="10" y="58">n</tspan>
<tspan x="10" y="74">&gt; (set -e; export PORT=$(utility2 shServerPortRandom); utility2 test test.js)</tspan>
<tspan x="10" y="90"></tspan>
<tspan x="10" y="106"></tspan>
<tspan x="10" y="122">[MODE_BUILD=npmTest] - 2017-03-25T12:50:37Z - npm-testing /home/travis/build/npmdoc/node-npmdoc-\</tspan>
<tspan x="10" y="138">grunt-contrib-clean</tspan>
<tspan x="10" y="154"></tspan>
<tspan x="10" y="170"></tspan>
<tspan x="10" y="186">covering $ /home/travis/.nvm/versions/node/v7.7.4/bin/node /home/travis/build/npmdoc/node-npmdoc\</tspan>
<tspan x="10" y="202">-grunt-contrib-clean/test.js</tspan>
<tspan x="10" y="218">merging file:///home/travis/build/npmdoc/node-npmdoc-grunt-contrib-clean/tmp/build/test-report.j\</tspan>
<tspan x="10" y="234">son to test-report</tspan>
<tspan x="10" y="250">&gt; server listening on http-port 41911</tspan>
<tspan x="10" y="266">created apidoc file:///home/travis/build/npmdoc/node-npmdoc-grunt-contrib-clean/tmp/build/apidoc\</tspan>
<tspan x="10" y="282">.html</tspan>
<tspan x="10" y="298"></tspan>
<tspan x="10" y="314"></tspan>
<tspan x="10" y="330">browserTest - created electron entry-page /home/travis/build/npmdoc/node-npmdoc-grunt-contrib-cl\</tspan>
<tspan x="10" y="346">ean/tmp/electron.15b0584c11d0.061cea3105d2d.html</tspan>
<tspan x="10" y="362"></tspan>
<tspan x="10" y="378">[node test-case 1 of 6 passed] - testCase_buildLib_default</tspan>
<tspan x="10" y="394">[node test-case 2 of 6 passed] - testCase_buildReadme_default</tspan>
<tspan x="10" y="410">[node test-case 3 of 6 passed] - testCase_buildTest_default</tspan>
<tspan x="10" y="426"></tspan>
<tspan x="10" y="442">browserTest - created electron entry-page /home/travis/build/npmdoc/node-npmdoc-grunt-contrib-cl\</tspan>
<tspan x="10" y="458">ean/tmp/electron.15b0584c15d0.4cff2c66f0d33.html</tspan>
<tspan x="10" y="474"></tspan>
<tspan x="10" y="490">(node:4914) DeprecationWarning: node --debug is deprecated. Please use node --inspect instead.</tspan>
<tspan x="10" y="506">Xlib:  extension "RANDR" missing on display ":99.0".</tspan>
<tspan x="10" y="522">Xlib:  extension "RANDR" missing on display ":99.0".</tspan>
<tspan x="10" y="538">&gt; server listening on http-port 33060</tspan>
<tspan x="10" y="554"></tspan>
<tspan x="10" y="570">/home/travis/build/npmdoc/node-npmdoc-grunt-contrib-clean/node_modules/utility2/lib.utility2.sh.\</tspan>
<tspan x="10" y="586">html.js</tspan>
<tspan x="10" y="602"> #1 Line too long.</tspan>
<tspan x="10" y="618">    process.stdout.write('export npm_package_' + key.replace((/\W/g), '_') + '=' + JSON.stringif\</tspan>
<tspan x="10" y="634">y(value) + ';'); // Line 1445, Pos 116</tspan>
<tspan x="10" y="650"></tspan>
<tspan x="10" y="666">merging file:///home/travis/build/npmdoc/node-npmdoc-grunt-contrib-clean/tmp/build/test-report.j\</tspan>
<tspan x="10" y="682">son to test-report</tspan>
<tspan x="10" y="698">Xlib:  extension "RANDR" missing on display ":99.0".</tspan>
<tspan x="10" y="714"></tspan>
<tspan x="10" y="730">/home/travis/build/npmdoc/node-npmdoc-grunt-contrib-clean/node_modules/utility2/lib.utility2.sh.\</tspan>
<tspan x="10" y="746">html.js</tspan>
<tspan x="10" y="762"> #1 Line too long.</tspan>
<tspan x="10" y="778">    process.stdout.write('export npm_package_' + key.replace((/\W/g), '_') + '=' + JSON.stringif\</tspan>
<tspan x="10" y="794">y(value) + ';'); // Line 1445, Pos 116</tspan>
<tspan x="10" y="810"></tspan>
<tspan x="10" y="826">[4945:0325/125039:WARNING:audio_manager.cc(314)] Multiple instances of AudioManager detected</tspan>
<tspan x="10" y="842">[4945:0325/125039:WARNING:audio_manager.cc(275)] Multiple instances of AudioManager detected</tspan>
<tspan x="10" y="858">[4973:0325/125039:ERROR:sandbox_linux.cc(343)] InitializeSandbox() called with multiple threads \</tspan>
<tspan x="10" y="874">in process gpu-process. </tspan>
<tspan x="10" y="890">[4945:0325/125039:ERROR:browser_gpu_channel_host_factory.cc(131)] Failed to create channel.</tspan>
<tspan x="10" y="906">merging file:///home/travis/build/npmdoc/node-npmdoc-grunt-contrib-clean/tmp/build/test-report.j\</tspan>
<tspan x="10" y="922">son to test-report</tspan>
<tspan x="10" y="938">Xlib:  extension "RANDR" missing on display ":99.0".</tspan>
<tspan x="10" y="954">[4949:0325/125039:WARNING:audio_manager.cc(314)] Multiple instances of AudioManager detected</tspan>
<tspan x="10" y="970">[4949:0325/125039:WARNING:audio_manager.cc(275)] Multiple instances of AudioManager detected</tspan>
<tspan x="10" y="986">[5001:0325/125039:ERROR:sandbox_linux.cc(343)] InitializeSandbox() called with multiple threads \</tspan>
<tspan x="10" y="1002">in process gpu-process. </tspan>
<tspan x="10" y="1018">[4949:0325/125039:ERROR:browser_gpu_channel_host_factory.cc(131)] Failed to create channel.</tspan>
<tspan x="10" y="1034"></tspan>
<tspan x="10" y="1050">browserTest - opened url file:///home/travis/build/npmdoc/node-npmdoc-grunt-contrib-clean/tmp/bu\</tspan>
<tspan x="10" y="1066">ild/apidoc.html</tspan>
<tspan x="10" y="1082"></tspan>
<tspan x="10" y="1098"></tspan>
<tspan x="10" y="1114">browserTest - opened url http://127.0.0.1:41911?modeTest=1</tspan>
<tspan x="10" y="1130"></tspan>
<tspan x="10" y="1146">[4949:0325/125041:INFO:CONSOLE(203)] "----------|-----------|-----------|-----------|-----------\</tspan>
<tspan x="10" y="1162">|</tspan>
<tspan x="10" y="1178">File      |   % Stmts |% Branches |   % Funcs |   % Lines |</tspan>
<tspan x="10" y="1194">----------|-----------|-----------|-----------|-----------|</tspan>
<tspan x="10" y="1210">----------|-----------|-----------|-----------|-----------|</tspan>
<tspan x="10" y="1226">All files |       100 |       100 |       100 |       100 |</tspan>
<tspan x="10" y="1242">----------|-----------|-----------|-----------|-----------|</tspan>
<tspan x="10" y="1258">", source: file:///home/travis/build/npmdoc/node-npmdoc-grunt-contrib-clean/tmp/electron.15b0584\</tspan>
<tspan x="10" y="1274">c15d0.4cff2c66f0d33.html (203)</tspan>
<tspan x="10" y="1290">[4949:0325/125041:INFO:CONSOLE(203)] "created coverage file:///tmp/build/coverage.html/index.htm\</tspan>
<tspan x="10" y="1306">l", source: file:///home/travis/build/npmdoc/node-npmdoc-grunt-contrib-clean/tmp/electron.15b058\</tspan>
<tspan x="10" y="1322">4c15d0.4cff2c66f0d33.html (203)</tspan>
<tspan x="10" y="1338">[node test-case 4 of 6 passed] - testCase_buildApp_default</tspan>
<tspan x="10" y="1354"></tspan>
<tspan x="10" y="1370">browserTest - created screen-capture file:///home/travis/build/npmdoc/node-npmdoc-grunt-contrib-\</tspan>
<tspan x="10" y="1386">clean/tmp/build/screen-capture.npmTest.browser._2Fhome_2Ftravis_2Fbuild_2Fnpmdoc_2Fnode-npmdoc-g\</tspan>
<tspan x="10" y="1402">runt-contrib-clean_2Ftmp_2Fbuild_2Fapidoc.html.png</tspan>
<tspan x="10" y="1418"></tspan>
<tspan x="10" y="1434"></tspan>
<tspan x="10" y="1450">browserTest - exit-code 0 - file:///home/travis/build/npmdoc/node-npmdoc-grunt-contrib-clean/tmp\</tspan>
<tspan x="10" y="1466">/build/apidoc.html</tspan>
<tspan x="10" y="1482"></tspan>
<tspan x="10" y="1498">[node test-case 5 of 6 passed] - testCase_buildApidoc_default</tspan>
<tspan x="10" y="1514"></tspan>
<tspan x="10" y="1530">browserTest - created screen-capture file:///home/travis/build/npmdoc/node-npmdoc-grunt-contrib-\</tspan>
<tspan x="10" y="1546">clean/tmp/build/screen-capture.npmTest.browser..png</tspan>
<tspan x="10" y="1562"></tspan>
<tspan x="10" y="1578"></tspan>
<tspan x="10" y="1594">browserTest - exit-code 0 - http://127.0.0.1:41911?modeTest=1</tspan>
<tspan x="10" y="1610"></tspan>
<tspan x="10" y="1626"></tspan>
<tspan x="10" y="1642">browserTest - merged coverage from /home/travis/build/npmdoc/node-npmdoc-grunt-contrib-clean/tmp\</tspan>
<tspan x="10" y="1658">/coverage.npmTest.browser.%2F.json</tspan>
<tspan x="10" y="1674"></tspan>
<tspan x="10" y="1690"></tspan>
<tspan x="10" y="1706">browserTest - merging test-report from /home/travis/build/npmdoc/node-npmdoc-grunt-contrib-clean\</tspan>
<tspan x="10" y="1722">/tmp/test-report.npmTest.browser.%2F.json</tspan>
<tspan x="10" y="1738"></tspan>
<tspan x="10" y="1754">[node test-case 6 of 6 passed] - testCase_webpage_default</tspan>
<tspan x="10" y="1770">----------------------------------------|-----------|-----------|-----------|-----------|</tspan>
<tspan x="10" y="1786">File                                    |   % Stmts |% Branches |   % Funcs |   % Lines |</tspan>
<tspan x="10" y="1802">----------------------------------------|-----------|-----------|-----------|-----------|</tspan>
<tspan x="10" y="1818">   node-npmdoc-grunt-contrib-clean/     |       100 |       100 |       100 |       100 |</tspan>
<tspan x="10" y="1834">      example.js                        |       100 |       100 |       100 |       100 |</tspan>
<tspan x="10" y="1850">      lib.npmdoc_grunt_contrib_clean.js |       100 |       100 |       100 |       100 |</tspan>
<tspan x="10" y="1866">      test.js                           |       100 |       100 |       100 |       100 |</tspan>
<tspan x="10" y="1882">----------------------------------------|-----------|-----------|-----------|-----------|</tspan>
<tspan x="10" y="1898">All files                               |       100 |       100 |       100 |       100 |</tspan>
<tspan x="10" y="1914">----------------------------------------|-----------|-----------|-----------|-----------|</tspan>
<tspan x="10" y="1930"></tspan>
<tspan x="10" y="1946">created coverage file:///home/travis/build/npmdoc/node-npmdoc-grunt-contrib-clean/tmp/build/cove\</tspan>
<tspan x="10" y="1962">rage.html/index.html</tspan>
<tspan x="10" y="1978"></tspan>
<tspan x="10" y="1994">/home/travis/build/npmdoc/node-npmdoc-grunt-contrib-clean/node_modules/utility2/lib.utility2.sh.\</tspan>
<tspan x="10" y="2010">html.js</tspan>
<tspan x="10" y="2026"> #1 Line too long.</tspan>
<tspan x="10" y="2042">    process.stdout.write('export npm_package_' + key.replace((/\W/g), '_') + '=' + JSON.stringif\</tspan>
<tspan x="10" y="2058">y(value) + ';'); // Line 1445, Pos 116</tspan>
<tspan x="10" y="2074"></tspan>
<tspan x="10" y="2090">merging file:///home/travis/build/npmdoc/node-npmdoc-grunt-contrib-clean/tmp/build/test-report.j\</tspan>
<tspan x="10" y="2106">son to test-report</tspan>
<tspan x="10" y="2122"></tspan>
<tspan x="10" y="2138">-------------------------------------------------------</tspan>
<tspan x="10" y="2154">| test-report - buildNpmdoc - node - linux v7.7.4 - 2017-03-25T12:50:27.305Z</tspan>
<tspan x="10" y="2170">|   16216 ms            0 failed        6 passed      |</tspan>
<tspan x="10" y="2186">-------------------------------------------------------</tspan>
<tspan x="10" y="2202"></tspan>
<tspan x="10" y="2218">created test-report file:///home/travis/build/npmdoc/node-npmdoc-grunt-contrib-clean/tmp/build/t\</tspan>
<tspan x="10" y="2234">est-report.html</tspan>
<tspan x="10" y="2250"></tspan>
<tspan x="10" y="2266"></tspan>
<tspan x="10" y="2282">npmTest - 0 failed tests</tspan>
<tspan x="10" y="2298"></tspan>
<tspan x="10" y="2314"></tspan>
<tspan x="10" y="2330">[MODE_BUILD=npmTest] - 2017-03-25T12:50:46Z - EXIT_CODE - 0</tspan>
</text>
</svg>
